<svg id="SvgjsSvg1018" xmlns="http://www.w3.org/2000/svg" version="1.1" xmlns:xlink="http://www.w3.org/1999/xlink" xmlns:svgjs="http://svgjs.com/svgjs" width="12" height="16" viewBox="0 0 4 4"><defs id="SvgjsDefs1019"><clipPath id="SvgjsClipPath1023"><path id="SvgjsPath1022" d="M16.99998 3.00003C16.140610000000002 3.00003 15.500010000000001 3.75401 15.500010000000001 4.6250100000000005C15.500010000000001 5.72958 16.99998 6.99999 16.99998 6.99999C16.99998 6.99999 18.50001 5.72959 18.50001 4.625020000000001C18.50001 3.765720000000001 17.85936 3.0000500000000008 16.99998 3.0000500000000008Z " fill="#ffffff"></path></clipPath></defs><path  d="M16.99998 3.00003C16.140610000000002 3.00003 15.500010000000001 3.75401 15.500010000000001 4.6250100000000005C15.500010000000001 5.72958 16.99998 6.99999 16.99998 6.99999C16.99998 6.99999 18.50001 5.72959 18.50001 4.625020000000001C18.50001 3.765720000000001 17.85936 3.0000500000000008 16.99998 3.0000500000000008Z " fill="#fe9389" fill-opacity="0" transform="matrix(1,0,0,1,-15,-3)"></path><path d="M16.99998 3.00003C16.140610000000002 3.00003 15.500010000000001 3.75401 15.500010000000001 4.6250100000000005C15.500010000000001 5.72958 16.99998 6.99999 16.99998 6.99999C16.99998 6.99999 18.50001 5.72959 18.50001 4.625020000000001C18.50001 3.765720000000001 17.85936 3.0000500000000008 16.99998 3.0000500000000008Z " fill-opacity="0" fill="#ffffff" stroke-dashoffset="0" stroke-linejoin="round" stroke-linecap="round" stroke-opacity="1" stroke="#fe9389" stroke-miterlimit="50" stroke-width="0.5" clip-path="url(&quot;#SvgjsClipPath1023&quot;)" transform="matrix(1,0,0,1,-15,-3)"></path><path d="M17 4.24998C17.13808 4.24998 17.25 4.36193 17.25 4.50003C17.25 4.6380799999999995 17.13808 4.75003 17 4.75003C16.86192 4.75003 16.75 4.6380799999999995 16.75 4.50003C16.75 4.36193 16.86192 4.24998 17 4.24998Z " fill="#fe9389" fill-opacity="1" transform="matrix(1,0,0,1,-15,-3)"></path></svg>